<?xml version="1.0" encoding="utf-8"?>
<!-- Generator: Adobe Illustrator 14.0.0, SVG Export Plug-In . SVG Version: 6.00 Build 43363)  -->
<!DOCTYPE svg PUBLIC "-//W3C//DTD SVG 1.1//EN" "http://www.w3.org/Graphics/SVG/1.1/DTD/svg11.dtd">
<svg version="1.1" id="Layer_1" xmlns="http://www.w3.org/2000/svg" xmlns:xlink="http://www.w3.org/1999/xlink" x="0px" y="0px"
	 width="313px" height="327px" viewBox="0 0 313 327" enable-background="new 0 0 313 327" xml:space="preserve">
<g>
	<path fill="#FFFFFF" d="M195.281,226.436c25.209-64.829,50.548-129.616,75.587-194.51c1.103,5.518,0.813,11.239,2.034,16.703
		c3.268,4.821,5.851,10.532,10.811,13.875c-22.938,59.783-45.437,119.749-68.204,179.597c-2.046,5.144-3.686,10.457-6.149,15.418
		c-7.575-3.365-13.446-9.386-19.586-14.786c-2.089-4.938-2.667-10.231-2.024-15.546
		C190.268,227.035,192.785,226.801,195.281,226.436z"/>
	<path fill="#FFFFFF" d="M28.038,219.494c12.771,1.017,25.584,1.092,38.355,2.109c9.696-0.128,19.317,1.297,29.002,1.201
		c19.285,1.327,38.613,1.724,57.898,3.074c11.229,0.011,22.393,1.414,33.621,1.34c-1.297,5.463-0.075,10.905,1.831,16.049
		c5.432,4.864,10.746,9.953,17.015,13.789c-45.31-3.493-90.683-6.15-136.002-9.375c-4.564-0.515-9.161-0.085-13.714-0.525
		c-7.478-3.429-14.078-8.538-20.024-14.174C32.869,228.804,29.987,224.368,28.038,219.494z"/>
</g>
<g>
	<g>
		<path fill="#333333" d="M216.344,22.433c19.768-1.607,39.45-4.403,59.249-5.486c-1.094,6.386-4.65,12.685-2.818,19.253
			c0.922,5.068,0.439,10.832,3.804,15.106c1.832,2.882,3.76,5.689,5.624,8.55c2.797,0.021,5.604,0.01,8.422-0.043
			c-25.499,68.161-50.473,136.547-76.059,204.667c-39.03-2.625-78.05-5.829-117.091-8.55c-11.368-1.104-22.821-1.308-34.124-3.054
			c-5.55-0.579-11.432-1.168-16.103-4.543c-7.114-4.8-14.431-9.942-19.103-17.313c-2.946-4.211-6.578-8.699-5.731-14.207
			c24.374-41.247,48.352-82.743,72.576-124.088c12.299-21.192,24.802-42.266,36.984-63.522c3.761,1.575,7.757,0.803,11.678,0.557
			C167.864,27.222,192.12,24.994,216.344,22.433z M195.281,226.436c-2.496,0.365-5.014,0.6-7.532,0.75
			c-0.643,5.314-0.064,10.607,2.024,15.546c6.14,5.4,12.011,11.421,19.586,14.786c2.464-4.961,4.104-10.274,6.149-15.418
			c22.768-59.848,45.266-119.813,68.204-179.597c-4.96-3.343-7.543-9.054-10.811-13.875c-1.221-5.463-0.932-11.185-2.034-16.703
			C245.829,96.82,220.49,161.606,195.281,226.436z M28.038,219.494c1.95,4.874,4.832,9.31,7.981,13.488
			c5.946,5.636,12.546,10.745,20.024,14.174c4.554,0.44,9.15,0.011,13.714,0.525c45.319,3.225,90.693,5.882,136.002,9.375
			c-6.269-3.836-11.583-8.925-17.015-13.789c-1.906-5.144-3.128-10.586-1.831-16.049c-11.229,0.074-22.393-1.329-33.621-1.34
			c-19.285-1.351-38.613-1.747-57.898-3.074c-9.685,0.096-19.306-1.329-29.002-1.201C53.622,220.586,40.808,220.511,28.038,219.494z
			"/>
	</g>
</g>
<g>
	<g>
		<g enable-background="new    ">
			<defs>
				<polygon id="SVGID_1_" enable-background="new    " points="118.373,153.529 156.729,55.008 211.878,55.369 178.312,157.177 
									"/>
			</defs>
			<clipPath id="SVGID_2_">
				<use xlink:href="#SVGID_1_"  overflow="visible"/>
			</clipPath>
			<g clip-path="url(#SVGID_2_)">
				<g>
					<g>
						<g>
							<path fill="#767676" d="M151.889,130.094c-1.987-0.094-3.999,0.156-5.938,0.688c-1.937,0.531-3.804,1.345-5.503,2.382
								c-1.701,1.038-3.237,2.3-4.509,3.729c-1.274,1.431-2.286,3.03-2.934,4.738c-0.65,1.714-0.872,3.372-0.713,4.903
								c0.159,1.537,0.702,2.948,1.578,4.161c0.879,1.218,2.095,2.234,3.597,2.979c1.506,0.746,3.299,1.219,5.326,1.342
								c2.031,0.123,4.097-0.115,6.091-0.653c1.996-0.539,3.917-1.378,5.662-2.452c1.743-1.074,3.305-2.381,4.585-3.858
								c1.277-1.474,2.271-3.115,2.883-4.858c0.608-1.738,0.776-3.407,0.56-4.937c-0.216-1.525-0.812-2.911-1.735-4.092
								c-0.919-1.176-2.162-2.148-3.674-2.849C155.657,130.617,153.881,130.188,151.889,130.094 M182.342,55.175
								c-3.013-0.02-6.068,0.382-9.069,1.152c-2.997,0.769-5.945,1.904-8.747,3.355c-2.803,1.452-5.465,3.223-7.885,5.26
								c-2.427,2.043-4.615,4.358-6.464,6.896l1.803,1.916c1.475-1.104,2.872-2.035,4.23-2.81c1.358-0.774,2.678-1.393,4.003-1.872
								c1.324-0.479,2.653-0.817,4.029-1.032s2.799-0.304,4.31-0.284c2.612,0.035,4.952,0.52,6.944,1.371
								c2.001,0.854,3.654,2.078,4.882,3.587c1.234,1.517,2.039,3.321,2.333,5.326c0.296,2.016,0.076,4.234-0.742,6.565
								c-1.394,3.973-3.672,7.175-6.367,9.903c-2.705,2.738-5.822,4.991-8.884,7.074c-3.067,2.087-6.077,4.002-8.569,6.073
								c-2.499,2.076-4.481,4.312-5.493,7.045c-0.22,0.596-0.402,1.153-0.547,1.7c-0.145,0.548-0.252,1.085-0.324,1.64
								c-0.071,0.556-0.106,1.129-0.106,1.748c0,0.621,0.035,1.287,0.104,2.028l3.272,0.139c1.214-3.059,2.868-5.291,4.871-7.046
								c1.998-1.751,4.348-3.033,6.954-4.184c2.605-1.15,5.471-2.171,8.494-3.396s6.203-2.655,9.429-4.619
								c2.296-1.398,4.459-2.996,6.456-4.735c1.992-1.736,3.816-3.611,5.438-5.569c1.616-1.952,3.03-3.985,4.208-6.042
								c1.174-2.049,2.113-4.122,2.786-6.163c1.128-3.421,1.32-6.71,0.728-9.714c-0.588-2.98-1.949-5.678-3.938-7.948
								c-1.975-2.253-4.569-4.086-7.646-5.36C189.775,55.916,186.235,55.201,182.342,55.175"/>
						</g>
					</g>
				</g>
			</g>
		</g>
	</g>
</g>
<g opacity="0.9">
	<g>
		<g>
			<g enable-background="new    ">
				<defs>
					<polygon id="SVGID_3_" enable-background="new    " points="134.644,215.716 152.06,170.878 206.771,171.978 191.473,218.262 
											"/>
				</defs>
				<clipPath id="SVGID_4_">
					<use xlink:href="#SVGID_3_"  overflow="visible"/>
				</clipPath>
				<g clip-path="url(#SVGID_4_)">
					<g>
						<g>
							<g>
								<path fill="#767676" d="M179.012,171.42c-3.768-0.076-7.565,0.458-11.214,1.488c-3.645,1.028-7.15,2.555-10.334,4.468
									c-3.189,1.915-6.064,4.225-8.44,6.818c-2.386,2.604-4.273,5.503-5.472,8.587c-1.206,3.104-1.6,6.106-1.274,8.881
									c0.328,2.794,1.386,5.356,3.082,7.557c1.708,2.216,4.061,4.061,6.961,5.399c2.918,1.346,6.387,2.176,10.3,2.351
									c3.932,0.177,7.928-0.325,11.782-1.385c3.859-1.062,7.565-2.679,10.91-4.728c3.34-2.045,6.312-4.516,8.716-7.282
									c2.394-2.756,4.216-5.799,5.275-9.003c1.052-3.184,1.249-6.22,0.711-8.982c-0.533-2.742-1.792-5.216-3.655-7.298
									c-1.852-2.067-4.302-3.751-7.238-4.935C186.202,172.18,182.798,171.496,179.012,171.42"/>
							</g>
						</g>
					</g>
				</g>
			</g>
		</g>
	</g>
	<g>
		<g>
			<g enable-background="new    ">
				<defs>
					<polygon id="SVGID_5_" enable-background="new    " points="142.116,211.181 155.81,175.396 199.522,176.379 187.169,213.078 
											"/>
				</defs>
				<clipPath id="SVGID_6_">
					<use xlink:href="#SVGID_5_"  overflow="visible"/>
				</clipPath>
				<g clip-path="url(#SVGID_6_)">
					<g>
						<g>
							<g>
								<path fill="#ECECEC" d="M177.406,175.881c-3.01-0.067-6.049,0.355-8.968,1.177c-2.917,0.82-5.723,2.042-8.27,3.574
									c-2.55,1.534-4.846,3.384-6.74,5.461c-1.899,2.084-3.397,4.402-4.34,6.867c-0.948,2.476-1.246,4.868-0.97,7.075
									c0.278,2.219,1.137,4.251,2.501,5.991c1.372,1.751,3.253,3.205,5.565,4.256c2.323,1.057,5.079,1.704,8.182,1.836
									c3.115,0.131,6.279-0.271,9.33-1.112c3.053-0.841,5.985-2.12,8.635-3.737c2.646-1.616,5.004-3.568,6.914-5.755
									c1.905-2.18,3.361-4.59,4.217-7.13c0.851-2.527,1.023-4.94,0.612-7.14c-0.408-2.188-1.394-4.162-2.864-5.828
									c-1.462-1.656-3.405-3.009-5.741-3.963C183.145,176.505,180.43,175.949,177.406,175.881"/>
							</g>
						</g>
					</g>
				</g>
			</g>
		</g>
	</g>
	<g>
		<g>
			<g enable-background="new    ">
				<defs>
					<polygon id="SVGID_7_" enable-background="new    " points="150.676,205.996 160.201,180.664 191.155,181.447 182.298,207.232 
											"/>
				</defs>
				<clipPath id="SVGID_8_">
					<use xlink:href="#SVGID_7_"  overflow="visible"/>
				</clipPath>
				<g clip-path="url(#SVGID_8_)">
					<g>
						<g>
							<g>
								<path fill="#767676" d="M175.546,181.052c-2.134-0.054-4.289,0.243-6.36,0.825c-2.071,0.581-4.062,1.449-5.867,2.538
									c-1.808,1.091-3.433,2.406-4.771,3.883c-1.339,1.479-2.392,3.122-3.047,4.867c-0.658,1.751-0.856,3.44-0.648,4.995
									c0.209,1.562,0.827,2.99,1.799,4.21c0.976,1.225,2.309,2.24,3.941,2.973c1.638,0.733,3.576,1.181,5.756,1.267
									c2.188,0.085,4.405-0.201,6.544-0.792c2.139-0.592,4.192-1.489,6.049-2.621s3.512-2.498,4.857-4.027
									c1.342-1.528,2.374-3.217,2.986-5c0.609-1.775,0.746-3.476,0.471-5.026c-0.274-1.546-0.955-2.945-1.98-4.128
									c-1.021-1.18-2.386-2.144-4.03-2.826C179.606,181.507,177.688,181.106,175.546,181.052"/>
							</g>
						</g>
					</g>
				</g>
			</g>
		</g>
	</g>
	<g>
		<g>
			<g enable-background="new    ">
				<defs>
					<polygon id="SVGID_9_" enable-background="new    " points="159.943,200.372 165.055,186.508 182.022,186.989 177.11,200.988 
											"/>
				</defs>
				<clipPath id="SVGID_10_">
					<use xlink:href="#SVGID_9_"  overflow="visible"/>
				</clipPath>
				<g clip-path="url(#SVGID_10_)">
					<g>
						<g>
							<g>
								<path fill="#ECECEC" d="M173.497,186.748c-1.17-0.033-2.352,0.126-3.489,0.444c-1.137,0.318-2.23,0.794-3.222,1.393
									c-0.992,0.6-1.883,1.322-2.613,2.134c-0.731,0.812-1.304,1.715-1.655,2.672c-0.354,0.958-0.454,1.881-0.332,2.729
									c0.122,0.85,0.468,1.625,1.006,2.285c0.539,0.661,1.27,1.209,2.161,1.601c0.894,0.393,1.948,0.631,3.13,0.673
									c1.187,0.043,2.389-0.114,3.546-0.435c1.159-0.321,2.271-0.807,3.278-1.418s1.906-1.349,2.64-2.177
									c0.732-0.826,1.298-1.742,1.638-2.71c0.339-0.966,0.421-1.892,0.278-2.739c-0.142-0.844-0.506-1.61-1.061-2.26
									c-0.552-0.648-1.293-1.18-2.188-1.558C175.719,187.005,174.669,186.781,173.497,186.748"/>
							</g>
						</g>
					</g>
				</g>
			</g>
		</g>
	</g>
	<g>
		<g>
			<g enable-background="new    ">
				<defs>
					<polygon id="SVGID_11_" enable-background="new    " points="178.026,196.276 180.139,190.479 188.93,190.748 186.859,196.573 
											"/>
				</defs>
				<clipPath id="SVGID_12_">
					<use xlink:href="#SVGID_11_"  overflow="visible"/>
				</clipPath>
				<g clip-path="url(#SVGID_12_)">
					<g>
						<g>
							<g>
								<polyline fill="#ECECEC" points="188.93,190.748 180.139,190.479 178.026,196.276 186.859,196.573 188.93,190.748 								
									"/>
							</g>
						</g>
					</g>
				</g>
			</g>
		</g>
	</g>
	<g>
		<g>
			<g enable-background="new    ">
				<defs>
					<polygon id="SVGID_13_" enable-background="new    " points="148.724,207.174 159.188,179.456 193.069,180.291 
						183.405,208.555 					"/>
				</defs>
				<clipPath id="SVGID_14_">
					<use xlink:href="#SVGID_13_"  overflow="visible"/>
				</clipPath>
				<g clip-path="url(#SVGID_14_)">
					<g>
						<g>
							<g>
								<polyline fill="#ECECEC" points="187.214,180.146 150.545,202.348 154.538,207.406 191.465,184.982 187.214,180.146 
																	"/>
							</g>
						</g>
					</g>
				</g>
			</g>
		</g>
	</g>
	<g>
		<g>
			<g enable-background="new    ">
				<defs>
					<polygon id="SVGID_15_" enable-background="new    " points="145.559,209.094 157.562,177.503 196.157,178.414 
						185.194,210.715 					"/>
				</defs>
				<clipPath id="SVGID_16_">
					<use xlink:href="#SVGID_15_"  overflow="visible"/>
				</clipPath>
				<g clip-path="url(#SVGID_16_)">
					<g>
						<g>
							<g>
								<polyline fill="#767676" points="191.161,178.296 147.131,204.956 150.512,209.297 194.802,182.41 191.161,178.296 								
									"/>
							</g>
						</g>
					</g>
				</g>
			</g>
		</g>
	</g>
</g>
<text transform="matrix(1 0 0 1 15.0112 305.5625)" fill="#414042" font-family="'Helvetica'" font-size="25">Copyleft Cover Needed</text>
<line opacity="0.5" fill="#BCBEC0" stroke="#BCBEC0" stroke-width="2" x1="30.039" y1="214.832" x2="134.5" y2="31.925"/>
</svg>
